<?xml version="1.0" encoding="utf-8"?>
<!-- Generator: Adobe Illustrator 20.1.0, SVG Export Plug-In . SVG Version: 6.00 Build 0)  -->
<svg version="1.1" id="Layer_2" xmlns="http://www.w3.org/2000/svg" xmlns:xlink="http://www.w3.org/1999/xlink" x="0px" y="0px"
	 viewBox="0 0 310.1 63.5" style="enable-background:new 0 0 310.1 63.5;" xml:space="preserve">
<style type="text/css">
	.st0{fill:#EB5B3B;}
	.st1{fill:#D92C15;}
	.st2{fill:#E7401D;}
	.st3{fill:#E62F2B;}
	.st4{fill:#D92D16;}
	.st5{fill:#D92E17;}
	.st6{fill:#E56F5C;}
	.st7{fill:none;}
	.st8{fill:#009393;}
	.st9{font-family:'PTSans-Regular';}
	.st10{font-size:43px;}
</style>
<polygon class="st0" points="0,26.1 28.2,41.8 90,14.5 62.2,0 "/>
<polygon class="st1" points="28.4,63.5 28.2,41.8 0,26.1 0,47.9 "/>
<polygon class="st2" points="89,35.6 90,14.5 28.2,41.8 28.4,63.5 "/>
<path class="st3" d="M7.5,22"/>
<path class="st4" d="M21.3,29.1v5.4c0,0,1.5,2.7,6.6,2.4s6.4-2.3,6.4-2.3v-4.8c0,0-0.9,2.7-6.4,2.7C22.4,32.5,21.3,29.8,21.3,29.1z"
	/>
<path class="st4" d="M38.1,22.5v5.4c0,0,1.5,2.7,6.6,2.4c5.2-0.3,6.4-2.3,6.4-2.3v-4.8c0,0-0.9,2.7-6.4,2.7
	C39.2,25.9,38.1,23.2,38.1,22.5z"/>
<path class="st4" d="M23.9,15.3v5.4c0,0,1.5,2.7,6.6,2.4c5.2-0.3,6.4-2.3,6.4-2.3V16c0,0-0.9,2.7-6.4,2.7
	C25.1,18.7,23.9,16.1,23.9,15.3z"/>
<path class="st4" d="M7.7,22.5v5.4c0,0,1.5,2.7,6.6,2.4c5.2-0.3,6.4-2.3,6.4-2.3v-4.8c0,0-0.9,2.7-6.4,2.7
	C8.8,25.9,7.7,23.2,7.7,22.5z"/>
<path class="st4" d="M39.2,9.1v5.4c0,0,1.5,2.7,6.6,2.4c5.2-0.3,6.4-2.3,6.4-2.3V9.8c0,0-0.9,2.7-6.4,2.7S39.2,9.9,39.2,9.1z"/>
<path class="st5" d="M53.2,16.1v5.4c0,0,1.5,2.7,6.6,2.4c5.2-0.3,6.4-2.3,6.4-2.3v-4.8c0,0-0.9,2.7-6.4,2.7
	C54.3,19.5,53.2,16.8,53.2,16.1z"/>
<path class="st5" d="M68.8,9.6V15c0,0,1.5,2.7,6.6,2.4c5.2-0.3,6.4-2.3,6.4-2.3v-4.9c0,0-0.9,2.7-6.4,2.7
	C69.9,13,68.8,10.4,68.8,9.6z"/>
<path class="st5" d="M54.4,3.5v4.8c0,0,1.5,2.4,6.6,2.1c5.2-0.3,6.4-2,6.4-2V4.1c0,0-0.9,2.4-6.4,2.5C55.6,6.6,54.4,4.2,54.4,3.5z"
	/>
<ellipse class="st6" cx="14.2" cy="22.7" rx="6.5" ry="3.1"/>
<ellipse class="st6" cx="27.8" cy="29.5" rx="6.5" ry="3.1"/>
<ellipse class="st6" cx="30.4" cy="15.8" rx="6.5" ry="3.1"/>
<ellipse class="st6" cx="44.6" cy="22.7" rx="6.5" ry="3.1"/>
<ellipse class="st6" cx="45.7" cy="9.7" rx="6.5" ry="3.1"/>
<ellipse class="st6" cx="59.7" cy="16.6" rx="6.5" ry="3.1"/>
<ellipse class="st6" cx="60.9" cy="3.5" rx="6.5" ry="3.1"/>
<ellipse class="st6" cx="75.3" cy="10" rx="6.5" ry="3.1"/>
<rect x="101.1" y="16" class="st7" width="274" height="51.7"/>
<text transform="matrix(1 0 0 1 101.0593 46.0731)" class="st8 st9 st10">LegoSearch</text>
</svg>
